<svg width="454" height="454" xmlns="http://www.w3.org/2000/svg" xmlns:xlink="http://www.w3.org/1999/xlink" xml:space="preserve" overflow="hidden"><defs><clipPath id="clip0"><path d="M413.117 179.646 820.354 133.117 866.883 540.354 459.646 586.883Z" fill-rule="evenodd" clip-rule="evenodd"/></clipPath><clipPath id="clip1"><path d="M413.117 179.646 820.354 133.117 866.883 540.354 459.646 586.883Z" fill-rule="evenodd" clip-rule="evenodd"/></clipPath><clipPath id="clip2"><path d="M413.117 179.646 820.354 133.117 866.883 540.354 459.646 586.883Z" fill-rule="evenodd" clip-rule="evenodd"/></clipPath></defs><g transform="translate(-413 -133)"><g clip-path="url(#clip0)"><g clip-path="url(#clip1)"><g clip-path="url(#clip2)"><path d="M521.852 379.086 527.523 428.718C530.189 452.049 585.88 469.322 651.632 461.809 717.384 454.297 767.744 424.907 765.078 401.576L759.407 351.944 645.428 407.511 521.852 379.086Z"/><path d="M643.344 389.27 820.882 303.235 628.367 258.191 450.975 345.499 475.7 351.269 484.618 429.323C485.151 433.989 489.405 437.371 494.072 436.837 498.738 436.304 502.119 432.05 501.586 427.384L493.347 355.269 643.344 389.27Z"/></g></g></g></g></svg>